# xmcd CD database file
#
# Track frame offsets:
#	150
#	26528
#	58615
#	80655
#	103848
#	130115
#	155410
#	186555
#	211793
#
# Disc length: 3203 seconds
#
# Revision: 0
# Processed by: cddbd v1.5PL3 Copyright (c) Steve Scherf et al.
# Submitted via: CDex 1.50
#
DISCID=780c8109
DTITLE=栄芝×近藤等則 - The吉原
DYEAR=2003
DGENRE=Jazz
TTITLE0=淡雪
TTITLE1=深川節
TTITLE2=夜桜や
TTITLE3=さのさ
TTITLE4=からかさ
TTITLE5=雪は巴
TTITLE6=並木駒形
TTITLE7=さわぎ
TTITLE8=氷面鏡
EXTD=YEAR: 2003
EXTT0=
EXTT1=
EXTT2=
EXTT3=
EXTT4=
EXTT5=
EXTT6=
EXTT7=
EXTT8=
PLAYORDER=
